<svg width="30" height="30" viewBox="0 0 30 30" fill="none" xmlns="http://www.w3.org/2000/svg">
  <path d="M24.9844 19.875L21.2344 18.375C20.5781 18.1406 19.8281 18.375 19.4062 18.8906L17.8125 20.9062C14.4375 19.2188 11.7188 16.5 10.0312 13.125L12.0469 11.5312C12.5625 11.1094 12.7969 10.3594 12.5625 9.70312L11.0625 6C10.7344 5.25 9.98438 4.82812 9.1875 4.96875L5.8125 5.625C4.96875 5.76562 4.40625 6.51562 4.5 7.35938C5.15625 15.75 11.7188 22.7812 20.0625 23.4375C20.9062 23.5312 21.6562 22.9688 21.8906 22.125L22.5469 18.75C22.6875 17.9531 22.2656 17.2031 21.5156 16.875L24.9844 19.875Z" fill="#009ADE"/>
</svg>