<svg width="110" height="40" viewBox="0 0 110 40" fill="none" xmlns="http://www.w3.org/2000/svg">
  <path d="M25.3125 10H7.1875C6.53125 10 6 10.5312 6 11.1875V15.3125C6 15.9688 6.53125 16.5 7.1875 16.5H25.3125C25.9688 16.5 26.5 15.9688 26.5 15.3125V11.1875C26.5 10.5312 25.9688 10 25.3125 10Z" fill="#009ADE"/>
  <path d="M25.3125 19.75H7.1875C6.53125 19.75 6 20.2812 6 20.9375V25.0625C6 25.7188 6.53125 26.25 7.1875 26.25H25.3125C25.9688 26.25 26.5 25.7188 26.5 25.0625V20.9375C26.5 20.2812 25.9688 19.75 25.3125 19.75Z" fill="#009ADE"/>
  <path d="M25.3125 29.5H7.1875C6.53125 29.5 6 30.0312 6 30.6875V34.8125C6 35.4688 6.53125 36 7.1875 36H25.3125C25.9688 36 26.5 35.4688 26.5 34.8125V30.6875C26.5 30.0312 25.9688 29.5 25.3125 29.5Z" fill="#009ADE"/>
  <path d="M42.7461 18.75C42.7461 15.6211 40.2773 13.1523 37.1484 13.1523C34.0195 13.1523 31.5508 15.6211 31.5508 18.75C31.5508 21.8789 34.0195 24.3477 37.1484 24.3477C40.2773 24.3477 42.7461 21.8789 42.7461 18.75ZM34.0059 18.75C34.0059 16.9922 35.3906 15.6074 37.1484 15.6074C38.9062 15.6074 40.291 16.9922 40.291 18.75C40.291 20.5078 38.9062 21.8926 37.1484 21.8926C35.3906 21.8926 34.0059 20.5078 34.0059 18.75Z" fill="#009ADE"/>
  <path d="M58.1836 13.5H55.7969V24H58.1836V13.5Z" fill="#009ADE"/>
  <path d="M70.3125 13.5H67.9375L63.9961 24H66.6797L67.2656 22.3594H71.0312L71.6172 24H74.2891L70.3125 13.5ZM68.0508 20.4141L69.125 17.2031L70.1992 20.4141H68.0508Z" fill="#009ADE"/>
  <path d="M85.2539 13.5H78.2852V24H85.4219V21.9844H80.6719V19.5156H84.9609V17.5H80.6719V15.5156H85.2539V13.5Z" fill="#009ADE"/>
  <path d="M49.2441 13.5H53.3281C55.793 13.5 57.8047 15.5117 57.8047 17.9766C57.8047 20.4414 55.793 22.4531 53.3281 22.4531H51.6309V24H49.2441V13.5ZM53.3281 20.0391C54.4336 20.0391 55.3281 19.1445 55.3281 17.9766C55.3281 16.8086 54.4336 15.9141 53.3281 15.9141H51.6309V20.0391H53.3281Z" fill="#009ADE"/>
  <path d="M94.5391 18.75C94.5391 15.6211 92.0703 13.1523 88.9414 13.1523C85.8125 13.1523 83.3438 15.6211 83.3438 18.75C83.3438 21.8789 85.8125 24.3477 88.9414 24.3477C92.0703 24.3477 94.5391 21.8789 94.5391 18.75ZM85.7988 18.75C85.7988 16.9922 87.1836 15.6074 88.9414 15.6074C90.6992 15.6074 92.0839 16.9922 92.0839 18.75C92.0839 20.5078 90.6992 21.8926 88.9414 21.8926C87.1836 21.8926 85.7988 20.5078 85.7988 18.75Z" fill="#009ADE"/>
  <path d="M104 24V13.5H101.375V20.3008L96.4219 13.5H94.2617V24H96.8867V17.1992L101.84 24H104Z" fill="#009ADE"/>
</svg>