<svg width="110" height="40" viewBox="0 0 110 40" fill="none" xmlns="http://www.w3.org/2000/svg">
  <g transform="translate(0 -3)">
    <path d="M35.5 22.2C33.9 20.9 31.7 20.2 28.9 20.2C27.2 20.2 25.7 20.5 24.5 21.1C23.3 21.7 22.3 22.6 21.6 23.7C20.9 24.8 20.5 26.1 20.5 27.6C20.5 29.1 20.9 30.4 21.6 31.5C22.3 32.6 23.3 33.5 24.5 34.1C25.7 34.7 27.2 35 28.9 35C31.7 35 33.9 34.3 35.5 33C37.1 31.7 38.1 29.9 38.5 27.6H34.1C33.8 28.6 33.3 29.3 32.5 29.8C31.7 30.3 30.6 30.5 29.2 30.5C27.8 30.5 26.6 30.1 25.8 29.2C25 28.3 24.6 27.1 24.6 25.6H38.8C38.9 23.9 38.2 22.5 35.5 22.2ZM25 24.4C25.1 23.1 25.6 22.2 26.4 21.5C27.2 20.8 28.2 20.5 29.4 20.5C30.6 20.5 31.6 20.8 32.3 21.5C33 22.2 33.5 23.1 33.6 24.4H25Z" fill="#1A2D5A"/>
    <path d="M54.5 20.5H50.7L46.4 25.5V16.1H42.6V34.6H46.4V29.6L47.8 28L51.9 34.6H56.5L50.4 25.1L54.5 20.5Z" fill="#1A2D5A"/>
    <path d="M65.3 20.2C64.1 20.2 63 20.4 62.1 20.8C61.2 21.2 60.4 21.8 59.9 22.5C59.4 23.2 59.1 24 59.1 24.9V34.6H62.9V26.1C62.9 25.1 63.2 24.3 63.8 23.7C64.4 23.1 65.2 22.8 66.3 22.8C67.4 22.8 68.2 23.1 68.8 23.7C69.4 24.3 69.7 25.1 69.7 26.1V34.6H73.5V24.9C73.5 24 73.2 23.2 72.7 22.5C72.2 21.8 71.4 21.2 70.5 20.8C69.6 20.4 68.5 20.2 65.3 20.2Z" fill="#1A2D5A"/>
    <path d="M87.8 22.2C86.5 21 84.7 20.4 82.5 20.4C81.3 20.4 80.2 20.6 79.2 21C78.2 21.4 77.5 22 76.9 22.8V20.5H73.1V34.6H76.9V26.2C76.9 25.1 77.3 24.3 78 23.6C78.7 22.9 79.7 22.6 80.9 22.6C82.2 22.6 83.1 22.9 83.8 23.6C84.5 24.3 84.8 25.2 84.8 26.5V34.6H88.6V25.8C88.6 24.9 88.3 23.4 87.8 22.2Z" fill="#1A2D5A"/>
    <path d="M103.2 20.2C101.8 20.2 100.5 20.6 99.5 21.3V20.5H95.7V38.7H99.5V33.8C100.5 34.5 101.8 34.9 103.2 34.9C104.5 34.9 105.7 34.6 106.7 34C107.7 33.4 108.5 32.5 109.1 31.4C109.7 30.3 110 29 110 27.6C110 26.2 109.7 24.9 109.1 23.8C108.5 22.7 107.7 21.8 106.7 21.2C105.7 20.6 104.5 20.2 103.2 20.2ZM102.5 31.5C101.2 31.5 100.2 31.1 99.5 30.2C98.8 29.3 98.4 28.2 98.4 26.8C98.4 25.4 98.8 24.3 99.5 23.4C100.2 22.5 101.2 22.1 102.5 22.1C103.8 22.1 104.8 22.5 105.5 23.4C106.2 24.3 106.6 25.4 106.6 26.8C106.6 28.2 106.2 29.3 105.5 30.2C104.8 31.1 103.8 31.5 102.5 31.5Z" fill="#1A2D5A"/>
    <path d="M11.8 21.7C14.4 19.1 14.4 14.9 11.8 12.3C9.2 9.7 5 9.7 2.4 12.3C-0.2 14.9 -0.2 19.1 2.4 21.7C5 24.3 9.2 24.3 11.8 21.7Z" fill="url(#paint0_linear)"/>
    <path d="M7.1 17C9.7 19.6 13.9 19.6 16.5 17C19.1 14.4 19.1 10.2 16.5 7.6C13.9 5 9.7 5 7.1 7.6C4.5 10.2 4.5 14.4 7.1 17Z" fill="url(#paint1_linear)"/>
    <path d="M16.5 31C19.1 28.4 19.1 24.2 16.5 21.6C13.9 19 9.7 19 7.1 21.6C4.5 24.2 4.5 28.4 7.1 31C9.7 33.6 13.9 33.6 16.5 31Z" fill="url(#paint2_linear)"/>
    <path d="M21.7 26.4C24.3 23.8 24.3 19.6 21.7 17C19.1 14.4 14.9 14.4 12.3 17C9.7 19.6 9.7 23.8 12.3 26.4C14.9 29 19.1 29 21.7 26.4Z" fill="url(#paint3_linear)"/>
    <path d="M11.8 31C14.4 28.4 14.4 24.2 11.8 21.6C9.2 19 5 19 2.4 21.6C-0.2 24.2 -0.2 28.4 2.4 31C5 33.6 9.2 33.6 11.8 31Z" fill="url(#paint4_linear)"/>
    <path d="M21.7 17C24.3 14.4 24.3 10.2 21.7 7.6C19.1 5 14.9 5 12.3 7.6C9.7 10.2 9.7 14.4 12.3 17C14.9 19.6 19.1 19.6 21.7 17Z" fill="url(#paint5_linear)"/>
  </g>
  <defs>
    <linearGradient id="paint0_linear" x1="0" y1="17" x2="14.2" y2="17" gradientUnits="userSpaceOnUse">
      <stop stop-color="#4B49E8"/>
      <stop offset="1" stop-color="#6762EE"/>
    </linearGradient>
    <linearGradient id="paint1_linear" x1="4.7" y1="5" x2="18.9" y2="19.4" gradientUnits="userSpaceOnUse">
      <stop stop-color="#29E1DA"/>
      <stop offset="1" stop-color="#4BEAE4"/>
    </linearGradient>
    <linearGradient id="paint2_linear" x1="4.7" y1="19" x2="18.9" y2="33.6" gradientUnits="userSpaceOnUse">
      <stop stop-color="#29E1DA"/>
      <stop offset="1" stop-color="#4BEAE4"/>
    </linearGradient>
    <linearGradient id="paint3_linear" x1="9.9" y1="14.6" x2="24.1" y2="28.8" gradientUnits="userSpaceOnUse">
      <stop stop-color="#4B49E8"/>
      <stop offset="1" stop-color="#6762EE"/>
    </linearGradient>
    <linearGradient id="paint4_linear" x1="0" y1="19" x2="14.2" y2="33.6" gradientUnits="userSpaceOnUse">
      <stop stop-color="#29E1DA"/>
      <stop offset="1" stop-color="#4BEAE4"/>
    </linearGradient>
    <linearGradient id="paint5_linear" x1="9.9" y1="5" x2="24.1" y2="19.6" gradientUnits="userSpaceOnUse">
      <stop stop-color="#29E1DA"/>
      <stop offset="1" stop-color="#4BEAE4"/>
    </linearGradient>
  </defs>
</svg>